<svg width="29" height="45" viewBox="0 0 29 45" fill="none" xmlns="http://www.w3.org/2000/svg">
<path d="M25.5617 11C26.2586 11 26.7418 11.695 26.4991 12.3482C26.3536 12.7401 25.9797 13 25.5617 13H24.7038C24.4812 13 24.2854 13.1471 24.2235 13.361L21.063 24.2781C20.9392 24.7057 20.5476 25 20.1024 25H8.2799C7.87709 25 7.5136 24.7583 7.35777 24.3869L3.58186 15.3869C3.30538 14.7279 3.78936 14 4.50399 14H18.491C19.1539 14 19.6334 14.6334 19.4535 15.2714C19.3319 15.7024 18.9388 16 18.491 16H6.76001C6.40269 16 6.16071 16.364 6.29895 16.6934L8.81638 22.6934C8.8943 22.8792 9.07604 23 9.27744 23H18.996C19.2191 23 19.4153 22.8521 19.4767 22.6375L22.5976 11.725C22.7204 11.2958 23.1127 11 23.5591 11H25.5617ZM11.5 26C10.672 26 10 26.672 10 27.5C10 28.329 10.672 29 11.5 29C12.328 29 13 28.329 13 27.5C13 26.672 12.328 26 11.5 26ZM16.5 26C15.672 26 15 26.671 15 27.5C15 28.329 15.672 29 16.5 29C17.328 29 18 28.329 18 27.5C18 26.672 17.328 26 16.5 26Z" fill="black"/>
<path d="M14.5504 6.32223C14.5504 6.32223 17.1001 12.2088 18.439 10.6325C19.778 9.05619 14.5504 6.32223 14.5504 6.32223Z" fill="#B61CB9"/>
<path d="M14.566 6.2542C14.566 6.2542 20.3041 6.67288 19.778 4.56274C19.252 2.4526 14.566 6.2542 14.566 6.2542Z" fill="#B61CB9"/>
<path d="M14.4459 6.29292C14.4459 6.29292 8.70878 5.87425 9.23392 7.98439C9.75906 10.0945 14.4459 6.29292 14.4459 6.29292Z" fill="#B61CB9"/>
<path d="M14.4616 6.22385C14.4616 6.22385 11.912 0.338283 10.573 1.91356C9.23406 3.48884 14.4616 6.22385 14.4616 6.22385Z" fill="#B61CB9"/>
<path d="M14.5211 6.20397C14.5211 6.20397 17.7095 0.740221 15.8445 0.203267C13.9795 -0.333688 14.5211 6.20397 14.5211 6.20397Z" fill="#B61CB9"/>
<path d="M14.4908 6.34211C14.4908 6.34211 11.3024 11.8069 13.1674 12.3428C15.0325 12.8787 14.4908 6.34211 14.4908 6.34211Z" fill="#B61CB9"/>
<path d="M14.6448 6.32223C14.6448 6.32223 9.42547 9.07713 10.7699 10.6472C12.1144 12.2172 14.6448 6.32223 14.6448 6.32223Z" fill="#EBA3ED"/>
<path d="M14.7494 6.29187C14.7494 6.29187 19.4482 10.0767 19.9669 7.96658C20.4856 5.85644 14.7494 6.29187 14.7494 6.29187Z" fill="#EBA3ED"/>
<path d="M14.6742 6.20498C14.6742 6.20498 15.1948 -0.334781 13.3316 0.208454C11.4684 0.751688 14.6742 6.20498 14.6742 6.20498Z" fill="#EBA3ED"/>
<path d="M14.7045 6.34211C14.7045 6.34211 14.1848 12.8819 16.0471 12.3376C17.9094 11.7933 14.7045 6.34211 14.7045 6.34211Z" fill="#EBA3ED"/>
<path d="M14.7338 6.22384C14.7338 6.22384 19.9577 3.46893 18.6086 1.89784C17.2596 0.326755 14.7338 6.22384 14.7338 6.22384Z" fill="#EBA3ED"/>
<path d="M14.6292 6.25418C14.6292 6.25418 9.93044 2.46933 9.41171 4.57947C8.89299 6.68961 14.6292 6.25418 14.6292 6.25418Z" fill="#EBA3ED"/>
<path d="M14.3883 6.28769C14.3883 6.28769 8.81058 7.8839 9.87552 9.71353C10.9405 11.5431 14.3883 6.28769 14.3883 6.28769Z" fill="#EBA3ED"/>
<path d="M14.4954 6.28034C14.4954 6.28034 18.4949 10.9978 19.3527 9.03106C20.2105 7.06432 14.4954 6.28034 14.4954 6.28034Z" fill="#EBA3ED"/>
<path d="M14.4359 6.17777C14.4359 6.17777 16.0141 -0.136942 14.095 0.00226835C12.1759 0.141479 14.4359 6.17777 14.4359 6.17777Z" fill="#EBA3ED"/>
<path d="M14.4441 6.32223C14.4441 6.32223 12.8659 12.6369 14.785 12.4977C16.7041 12.3585 14.4441 6.32223 14.4441 6.32223Z" fill="#EBA3ED"/>
<path d="M14.4919 6.20917C14.4919 6.20917 20.0687 4.61295 19.0047 2.78333C17.9406 0.953707 14.4919 6.20917 14.4919 6.20917Z" fill="#EBA3ED"/>
<path d="M14.3846 6.21758C14.3846 6.21758 10.3851 1.50012 9.52731 3.46686C8.66949 5.4336 14.3846 6.21758 14.3846 6.21758Z" fill="#EBA3ED"/>
<path d="M16.2878 6.03698C16.2099 6.0661 16.1259 6.06516 16.0485 6.03431C15.9712 6.00346 15.9048 5.94441 15.8596 5.86621L15.2585 6.09041C15.2696 6.15424 15.2751 6.21916 15.275 6.28424C15.2752 6.54274 15.1869 6.79102 15.0289 6.97571L15.4141 7.58233C15.4859 7.5634 15.561 7.5691 15.6299 7.59873C15.6989 7.62835 15.7588 7.68059 15.802 7.74891C15.8604 7.8411 15.8845 7.95603 15.8691 8.06854C15.8536 8.18106 15.7999 8.28198 15.7196 8.34924C15.639 8.416 15.5386 8.44345 15.4403 8.42558C15.3421 8.40771 15.254 8.34598 15.1954 8.2539C15.1479 8.18018 15.1222 8.09095 15.1222 7.99931C15.1222 7.90767 15.1479 7.81844 15.1954 7.74472L14.8212 7.15487C14.6958 7.23463 14.5549 7.27714 14.4114 7.2785C14.2665 7.27866 14.1239 7.23685 13.9969 7.15697L13.6228 7.74681C13.6703 7.82053 13.696 7.90976 13.696 8.00141C13.696 8.09305 13.6703 8.18228 13.6228 8.256C13.5642 8.34807 13.4761 8.40981 13.3778 8.42768C13.2796 8.44555 13.1792 8.41809 13.0985 8.35133C13.0587 8.31812 13.025 8.27624 12.9993 8.22809C12.9736 8.17994 12.9564 8.12646 12.9487 8.07071C12.9411 8.01496 12.9431 7.95803 12.9547 7.90317C12.9663 7.84832 12.9872 7.79661 13.0162 7.75101C13.0594 7.68268 13.1193 7.63045 13.1882 7.60082C13.2572 7.5712 13.3323 7.56549 13.4041 7.58442L13.7883 6.97781C13.6306 6.79302 13.5426 6.54471 13.5432 6.28633C13.5431 6.22126 13.5486 6.15634 13.5596 6.09251L12.9586 5.8683C12.9132 5.94637 12.8469 6.00532 12.7696 6.03615C12.6923 6.06698 12.6083 6.06801 12.5304 6.03907C12.4835 6.02184 12.44 5.99416 12.4025 5.95764C12.3649 5.92111 12.334 5.87645 12.3116 5.82622C12.2891 5.77599 12.2756 5.72118 12.2717 5.66494C12.2678 5.60869 12.2736 5.55212 12.2889 5.49846C12.304 5.4447 12.3283 5.39489 12.3603 5.35187C12.3922 5.30886 12.4313 5.27349 12.4753 5.2478C12.5192 5.22211 12.5671 5.20659 12.6163 5.20214C12.6655 5.1977 12.7149 5.2044 12.7619 5.22187C12.83 5.24722 12.8904 5.29447 12.9359 5.35799C12.9813 5.42151 13.0098 5.49863 13.018 5.58018L13.6475 5.81382C13.7114 5.67919 13.8018 5.5634 13.9115 5.47559C14.0212 5.38778 14.1473 5.33034 14.2796 5.30778V4.56706C14.2076 4.53699 14.1453 4.48226 14.1012 4.4103C14.0572 4.33834 14.0336 4.25262 14.0335 4.16475C14.0334 4.1083 14.043 4.05238 14.0618 4.0002C14.0807 3.94802 14.1083 3.90062 14.1431 3.8607C14.178 3.82079 14.2194 3.78915 14.2649 3.76761C14.3105 3.74607 14.3593 3.73506 14.4086 3.7352C14.5081 3.7352 14.6035 3.78045 14.6739 3.86101C14.7442 3.94157 14.7837 4.05083 14.7837 4.16475C14.7837 4.25262 14.76 4.33834 14.716 4.4103C14.672 4.48226 14.6097 4.53699 14.5376 4.56706V5.30778C14.67 5.33034 14.796 5.38778 14.9057 5.47559C15.0154 5.5634 15.1058 5.67919 15.1698 5.81382L15.7983 5.58018C15.807 5.49863 15.8357 5.4216 15.8813 5.35813C15.9268 5.29467 15.9872 5.24739 16.0554 5.22187C16.1023 5.20441 16.1517 5.19773 16.2008 5.20219C16.2499 5.20665 16.2977 5.22217 16.3416 5.24787C16.3855 5.27357 16.4245 5.30894 16.4564 5.35195C16.4883 5.39495 16.5124 5.44474 16.5275 5.49846C16.5575 5.60629 16.5492 5.72333 16.5043 5.82417C16.4594 5.92501 16.3816 6.00149 16.2878 6.03698Z" fill="#B61CB9"/>
<path d="M15.9903 4.92114C15.9371 4.99248 15.865 5.04187 15.785 5.06174C15.7049 5.08162 15.6214 5.07088 15.5472 5.03116L15.1365 5.58143C15.1751 5.62929 15.2093 5.68139 15.2389 5.73696C15.3569 5.95738 15.3946 6.22197 15.344 6.47387L15.949 6.76138C16.0016 6.70235 16.0683 6.66237 16.1406 6.64644C16.213 6.63052 16.2878 6.63935 16.3559 6.67182C16.4477 6.7156 16.5206 6.79925 16.5587 6.90445C16.5968 7.00966 16.597 7.12785 16.5591 7.23316C16.5208 7.33827 16.4476 7.42168 16.3556 7.46511C16.2637 7.50855 16.1604 7.50849 16.0685 7.46492C15.9943 7.43043 15.9318 7.36962 15.89 7.29143C15.8483 7.21325 15.8295 7.1218 15.8365 7.03052L15.2485 6.75076C15.1778 6.89374 15.0769 7.01416 14.9551 7.10102C14.8316 7.18769 14.6909 7.23717 14.5462 7.24486L14.4957 7.97157C14.5698 8.00606 14.6324 8.06687 14.6741 8.14505C14.7159 8.22324 14.7347 8.31469 14.7277 8.40598C14.7197 8.51953 14.6727 8.62479 14.597 8.69872C14.5213 8.77265 14.4231 8.80921 14.3239 8.8004C14.2748 8.79586 14.2269 8.78029 14.183 8.75456C14.1392 8.72883 14.1002 8.69345 14.0682 8.65045C14.0363 8.60745 14.0121 8.55768 13.997 8.50396C13.9819 8.45025 13.9761 8.39366 13.9801 8.33741C13.9859 8.2533 14.0131 8.173 14.0585 8.10652C14.1038 8.04005 14.1653 7.99035 14.2352 7.96361L14.2866 7.21659C14.0678 7.15312 13.8796 6.99386 13.7623 6.77309C13.7326 6.71763 13.7077 6.65895 13.6881 6.5979L13.0731 6.7656C13.07 6.85927 13.0402 6.9492 12.9883 7.02168C12.9364 7.09415 12.8652 7.1452 12.7856 7.16701C12.7377 7.18033 12.688 7.18268 12.6394 7.17395C12.5907 7.16521 12.544 7.14556 12.502 7.1161C12.4599 7.08665 12.4234 7.04799 12.3944 7.00234C12.3655 6.95668 12.3447 6.90492 12.3332 6.85004C12.3217 6.79512 12.3197 6.73814 12.3274 6.68234C12.335 6.62654 12.3523 6.57303 12.378 6.52487C12.4038 6.47671 12.4377 6.43484 12.4776 6.40167C12.5175 6.36851 12.5628 6.34469 12.6107 6.33158C12.6805 6.31248 12.7535 6.31671 12.8212 6.34378C12.8889 6.37086 12.9484 6.41962 12.9926 6.48427L13.636 6.30768C13.6293 6.1546 13.6536 6.00183 13.7072 5.8614C13.7608 5.72096 13.8421 5.59669 13.9448 5.49838L13.6073 4.86643C13.5321 4.88383 13.454 4.87434 13.3837 4.83924C13.3133 4.80413 13.2541 4.74511 13.214 4.67019C13.1882 4.6221 13.1709 4.56864 13.1632 4.51289C13.1555 4.45714 13.1574 4.4002 13.169 4.34533C13.1805 4.29046 13.2014 4.23874 13.2305 4.19315C13.2595 4.14756 13.2962 4.10901 13.3383 4.07969C13.4232 4.02027 13.5252 4.00189 13.6219 4.02861C13.7186 4.05532 13.8021 4.12494 13.854 4.22214C13.894 4.29713 13.9129 4.38438 13.9082 4.47207C13.9034 4.55975 13.8752 4.64363 13.8274 4.71235L14.1649 5.3443C14.2881 5.28447 14.4218 5.25822 14.5554 5.26762C14.689 5.27702 14.8189 5.32181 14.9348 5.39846L15.3646 4.82375C15.3348 4.74901 15.3242 4.66611 15.3342 4.58476C15.3441 4.50342 15.3741 4.42701 15.4206 4.36452C15.4527 4.32164 15.4918 4.28643 15.5357 4.2609C15.5796 4.23537 15.6275 4.22003 15.6767 4.21576C15.7258 4.21149 15.7752 4.21838 15.822 4.23602C15.8688 4.25365 15.9121 4.2817 15.9494 4.31855C16.0242 4.39258 16.0704 4.49741 16.0781 4.61025C16.0857 4.72308 16.0542 4.83481 15.9903 4.92114Z" fill="#B61CB9"/>
<path d="M7.35046 7.9889C7.35046 7.9889 9.9001 13.8755 11.2391 12.2992C12.578 10.7229 7.35046 7.9889 7.35046 7.9889Z" fill="#F19999"/>
<path d="M7.36597 7.92087C7.36597 7.92087 13.104 8.33955 12.578 6.22941C12.0519 4.11927 7.36597 7.92087 7.36597 7.92087Z" fill="#F19999"/>
<path d="M7.24596 7.95959C7.24596 7.95959 1.50883 7.54092 2.03397 9.65106C2.55911 11.7612 7.24596 7.95959 7.24596 7.95959Z" fill="#F19999"/>
<path d="M7.26155 7.89052C7.26155 7.89052 4.71192 2.00495 3.37295 3.58023C2.03398 5.15551 7.26155 7.89052 7.26155 7.89052Z" fill="#F19999"/>
<path d="M7.32117 7.87062C7.32117 7.87062 10.5096 2.40687 8.64455 1.86992C6.77953 1.33296 7.32117 7.87062 7.32117 7.87062Z" fill="#F19999"/>
<path d="M7.29102 8.00879C7.29102 8.00879 4.10259 13.4736 5.96762 14.0095C7.83265 14.5454 7.29102 8.00879 7.29102 8.00879Z" fill="#F19999"/>
<path d="M7.44472 7.9889C7.44472 7.9889 2.2254 10.7438 3.56987 12.3138C4.91434 13.8839 7.44472 7.9889 7.44472 7.9889Z" fill="#FF0C63"/>
<path d="M7.54932 7.95854C7.54932 7.95854 12.2481 11.7434 12.7668 9.63325C13.2855 7.52311 7.54932 7.95854 7.54932 7.95854Z" fill="#FF0C63"/>
<path d="M7.47401 7.87168C7.47401 7.87168 7.99456 1.33192 6.13137 1.87516C4.26818 2.41839 7.47401 7.87168 7.47401 7.87168Z" fill="#FF0C63"/>
<path d="M7.50441 8.00879C7.50441 8.00879 6.98477 14.5485 8.84705 14.0043C10.7093 13.46 7.50441 8.00879 7.50441 8.00879Z" fill="#FF0C63"/>
<path d="M7.53369 7.89051C7.53369 7.89051 12.7576 5.13561 11.4085 3.56452C10.0595 1.99343 7.53369 7.89051 7.53369 7.89051Z" fill="#FF0C63"/>
<path d="M7.42937 7.92086C7.42937 7.92086 2.73061 4.13601 2.21188 6.24615C1.69316 8.35629 7.42937 7.92086 7.42937 7.92086Z" fill="#FF0C63"/>
<path d="M7.1883 7.95436C7.1883 7.95436 1.61063 9.55058 2.67557 11.3802C3.74051 13.2098 7.1883 7.95436 7.1883 7.95436Z" fill="#FFB6B6"/>
<path d="M7.29553 7.94701C7.29553 7.94701 11.295 12.6645 12.1528 10.6977C13.0107 8.73099 7.29553 7.94701 7.29553 7.94701Z" fill="#FFB6B6"/>
<path d="M7.23583 7.84444C7.23583 7.84444 8.814 1.52973 6.8949 1.66894C4.9758 1.80815 7.23583 7.84444 7.23583 7.84444Z" fill="#FFB6B6"/>
<path d="M7.24413 7.9889C7.24413 7.9889 5.66596 14.3036 7.58506 14.1644C9.50416 14.0252 7.24413 7.9889 7.24413 7.9889Z" fill="#FFB6B6"/>
<path d="M7.29175 7.87584C7.29175 7.87584 12.8685 6.27962 11.8045 4.45C10.7405 2.62038 7.29175 7.87584 7.29175 7.87584Z" fill="#FFB6B6"/>
<path d="M7.18467 7.88426C7.18467 7.88426 3.18518 3.1668 2.32736 5.13354C1.46954 7.10028 7.18467 7.88426 7.18467 7.88426Z" fill="#FFB6B6"/>
<path d="M9.08795 7.70365C9.0101 7.73277 8.92606 7.73183 8.84871 7.70098C8.77137 7.67013 8.705 7.61108 8.65979 7.53288L8.05872 7.75708C8.06976 7.82091 8.07527 7.88584 8.07518 7.95091C8.07539 8.20942 7.98703 8.4577 7.82909 8.64238L8.21425 9.249C8.28604 9.23007 8.36112 9.23577 8.43011 9.2654C8.49909 9.29502 8.55892 9.34726 8.60215 9.41558C8.66054 9.50778 8.68467 9.62271 8.66924 9.73522C8.6538 9.84773 8.60008 9.94866 8.51982 10.0159C8.4392 10.0827 8.33877 10.1101 8.24051 10.0923C8.14226 10.0744 8.05418 10.0127 7.99559 9.92057C7.94804 9.84686 7.92239 9.75763 7.92239 9.66598C7.92239 9.57434 7.94804 9.48511 7.99559 9.41139L7.62141 8.82154C7.49595 8.90131 7.35504 8.94381 7.21155 8.94517C7.06666 8.94533 6.92409 8.90352 6.79711 8.82364L6.42293 9.41349C6.47047 9.4872 6.49613 9.57644 6.49613 9.66808C6.49613 9.75972 6.47047 9.84895 6.42293 9.92267C6.36434 10.0147 6.27627 10.0765 6.17802 10.0944C6.07976 10.1122 5.97933 10.0848 5.89871 10.018C5.85887 9.98479 5.82513 9.94291 5.79943 9.89476C5.77372 9.84661 5.75656 9.79313 5.74891 9.73738C5.74127 9.68163 5.74329 9.6247 5.75487 9.56985C5.76644 9.51499 5.78734 9.46328 5.81637 9.41768C5.85959 9.34936 5.91944 9.29712 5.98842 9.2675C6.0574 9.23787 6.13248 9.23217 6.20427 9.25109L6.58851 8.64448C6.43082 8.45969 6.34278 8.21139 6.34333 7.95301C6.34324 7.88793 6.34875 7.82301 6.3598 7.75918L5.75873 7.53497C5.71341 7.61304 5.64704 7.67199 5.56974 7.70282C5.49243 7.73366 5.40843 7.73468 5.33056 7.70574C5.28365 7.68851 5.24018 7.66084 5.20263 7.62431C5.16507 7.58778 5.13419 7.54312 5.11175 7.49289C5.08931 7.44266 5.07575 7.38785 5.07185 7.33161C5.06795 7.27536 5.0738 7.21879 5.08905 7.16514C5.1042 7.11137 5.12845 7.06156 5.16043 7.01855C5.19242 6.97553 5.23149 6.94017 5.27543 6.91447C5.31936 6.88878 5.3673 6.87327 5.41648 6.86882C5.46566 6.86437 5.51512 6.87107 5.56203 6.88854C5.63021 6.91389 5.69061 6.96114 5.73603 7.02466C5.78144 7.08818 5.80996 7.1653 5.8182 7.24685L6.44763 7.48049C6.51161 7.34586 6.60201 7.23008 6.71171 7.14226C6.82141 7.05445 6.94742 6.99701 7.07981 6.97446V6.23374C7.00772 6.20366 6.94544 6.14893 6.90142 6.07697C6.8574 6.00501 6.83376 5.91929 6.83371 5.83142C6.83358 5.77498 6.84321 5.71905 6.86202 5.66687C6.88082 5.61469 6.90844 5.56729 6.9433 5.52737C6.97815 5.48746 7.01955 5.45582 7.06511 5.43428C7.11068 5.41274 7.15951 5.40173 7.2088 5.40187C7.30828 5.40187 7.40369 5.44712 7.47404 5.52768C7.54438 5.60824 7.5839 5.7175 7.5839 5.83142C7.58384 5.91929 7.56021 6.00501 7.51619 6.07697C7.47216 6.14893 7.40989 6.20366 7.3378 6.23374V6.97446C7.47019 6.99701 7.59619 7.05445 7.70589 7.14226C7.8156 7.23008 7.906 7.34586 7.96998 7.48049L8.5985 7.24685C8.60714 7.16531 8.63592 7.08828 8.68145 7.02481C8.72699 6.96134 8.78739 6.91407 8.85557 6.88854C8.90242 6.87109 8.95183 6.8644 9.00094 6.86886C9.05006 6.87332 9.09792 6.88885 9.14178 6.91454C9.18564 6.94024 9.22464 6.97561 9.25653 7.01862C9.28843 7.06162 9.3126 7.11141 9.32765 7.16514C9.3577 7.27296 9.34938 7.39 9.3045 7.49084C9.25961 7.59168 9.1818 7.66816 9.08795 7.70365Z" fill="#FF0C63"/>
<path d="M8.79034 6.58784C8.73719 6.65918 8.66506 6.70857 8.58502 6.72845C8.50498 6.74832 8.42145 6.73758 8.34724 6.69787L7.93659 7.24813C7.9751 7.29599 8.00938 7.34809 8.03895 7.40366C8.15692 7.62408 8.19466 7.88868 8.14406 8.14058L8.74906 8.42808C8.80169 8.36905 8.86834 8.32907 8.9407 8.31315C9.01305 8.29722 9.08789 8.30605 9.1559 8.33852C9.24773 8.38231 9.32068 8.46595 9.35878 8.57116C9.39688 8.67636 9.39703 8.79455 9.3592 8.89987C9.32084 9.00497 9.24766 9.08838 9.15569 9.13182C9.06372 9.17525 8.96045 9.17519 8.86851 9.13162C8.79436 9.09713 8.73182 9.03632 8.69006 8.95814C8.6483 8.87995 8.62953 8.78851 8.63651 8.69722L8.04851 8.41746C7.97782 8.56044 7.87697 8.68086 7.75517 8.76772C7.63163 8.85439 7.49095 8.90387 7.34621 8.91156L7.29574 9.63827C7.36989 9.67276 7.43244 9.73357 7.4742 9.81176C7.51596 9.88994 7.53472 9.98139 7.52774 10.0727C7.51971 10.1862 7.47271 10.2915 7.39702 10.3654C7.32134 10.4394 7.22314 10.4759 7.12394 10.4671C7.07482 10.4626 7.02695 10.447 6.98309 10.4213C6.93922 10.3955 6.90021 10.3602 6.86828 10.3172C6.83635 10.2742 6.81214 10.2244 6.79702 10.1707C6.7819 10.117 6.77617 10.0604 6.78016 10.0041C6.78591 9.92001 6.81316 9.8397 6.85852 9.77323C6.90387 9.70675 6.96532 9.65705 7.0352 9.63032L7.08662 8.8833C6.86788 8.81982 6.67964 8.66056 6.56238 8.43979C6.53265 8.38433 6.50777 8.32565 6.48811 8.2646L5.87315 8.4323C5.87006 8.52597 5.84029 8.6159 5.78839 8.68838C5.73648 8.76086 5.66528 8.8119 5.58567 8.83372C5.53779 8.84703 5.48809 8.84939 5.43941 8.84065C5.39073 8.83192 5.34404 8.81226 5.30201 8.78281C5.25997 8.75336 5.22343 8.7147 5.19447 8.66904C5.16552 8.62338 5.14474 8.57162 5.1333 8.51674C5.12172 8.46182 5.11972 8.40484 5.12741 8.34904C5.1351 8.29324 5.15232 8.23973 5.1781 8.19157C5.20387 8.14341 5.2377 8.10155 5.27763 8.06838C5.31756 8.03521 5.36281 8.01139 5.4108 7.99828C5.48052 7.97918 5.55357 7.98342 5.62126 8.01049C5.68895 8.03756 5.74842 8.08632 5.79261 8.15097L6.43607 7.97438C6.42931 7.82131 6.45367 7.66853 6.50725 7.5281C6.56083 7.38766 6.64217 7.26339 6.74484 7.16508L6.40734 6.53313C6.33213 6.55053 6.25406 6.54104 6.18371 6.50594C6.11336 6.47083 6.05414 6.41182 6.01406 6.33689C5.98824 6.2888 5.97097 6.23534 5.96324 6.17959C5.95551 6.12384 5.95747 6.0669 5.96902 6.01203C5.98057 5.95716 6.00148 5.90544 6.03053 5.85985C6.05959 5.81427 6.09624 5.77571 6.13835 5.74639C6.22323 5.68697 6.32525 5.6686 6.42197 5.69531C6.51868 5.72203 6.60218 5.79164 6.65409 5.88884C6.69408 5.96383 6.71297 6.05108 6.7082 6.13877C6.70344 6.22646 6.67524 6.31034 6.62744 6.37905L6.96494 7.011C7.08817 6.95117 7.22184 6.92492 7.35544 6.93432C7.48905 6.94372 7.61894 6.98851 7.73486 7.06516L8.16463 6.49045C8.13484 6.41572 8.1243 6.33281 8.13423 6.25146C8.14416 6.17012 8.17415 6.09371 8.22069 6.03122C8.25271 5.98834 8.29181 5.95313 8.33575 5.9276C8.37968 5.90208 8.42759 5.88673 8.47672 5.88246C8.52585 5.87819 8.57523 5.88508 8.62204 5.90272C8.66884 5.92036 8.71215 5.9484 8.74947 5.98525C8.82424 6.05929 8.87047 6.16411 8.87812 6.27695C8.88578 6.38979 8.85424 6.50151 8.79034 6.58784Z" fill="#FF0C63"/>
<path d="M14.5504 13.8222C14.5504 13.8222 17.1001 19.7088 18.439 18.1325C19.778 16.5562 14.5504 13.8222 14.5504 13.8222Z" fill="#2D53DF"/>
<path d="M14.566 13.7542C14.566 13.7542 20.3041 14.1729 19.778 12.0627C19.252 9.9526 14.566 13.7542 14.566 13.7542Z" fill="#2D53DF"/>
<path d="M14.4459 13.7929C14.4459 13.7929 8.70878 13.3742 9.23392 15.4844C9.75906 17.5945 14.4459 13.7929 14.4459 13.7929Z" fill="#2D53DF"/>
<path d="M14.4616 13.7239C14.4616 13.7239 11.912 7.83828 10.573 9.41356C9.23406 10.9888 14.4616 13.7239 14.4616 13.7239Z" fill="#2D53DF"/>
<path d="M14.5211 13.704C14.5211 13.704 17.7095 8.24022 15.8445 7.70327C13.9795 7.16631 14.5211 13.704 14.5211 13.704Z" fill="#2D53DF"/>
<path d="M14.4908 13.8421C14.4908 13.8421 11.3024 19.3069 13.1674 19.8428C15.0325 20.3787 14.4908 13.8421 14.4908 13.8421Z" fill="#2D53DF"/>
<path d="M14.6448 13.8222C14.6448 13.8222 9.42547 16.5771 10.7699 18.1472C12.1144 19.7172 14.6448 13.8222 14.6448 13.8222Z" fill="#2D53DF"/>
<path d="M14.7494 13.7919C14.7494 13.7919 19.4482 17.5767 19.9669 15.4666C20.4856 13.3564 14.7494 13.7919 14.7494 13.7919Z" fill="#2D53DF"/>
<path d="M14.6742 13.705C14.6742 13.705 15.1948 7.16522 13.3316 7.70845C11.4684 8.25169 14.6742 13.705 14.6742 13.705Z" fill="#2D53DF"/>
<path d="M14.7045 13.8421C14.7045 13.8421 14.1848 20.3819 16.0471 19.8376C17.9094 19.2933 14.7045 13.8421 14.7045 13.8421Z" fill="#2D53DF"/>
<path d="M14.7338 13.7238C14.7338 13.7238 19.9577 10.9689 18.6086 9.39784C17.2596 7.82675 14.7338 13.7238 14.7338 13.7238Z" fill="#2D53DF"/>
<path d="M14.6292 13.7542C14.6292 13.7542 9.93044 9.96933 9.41171 12.0795C8.89299 14.1896 14.6292 13.7542 14.6292 13.7542Z" fill="#2D53DF"/>
<path d="M14.3883 13.7877C14.3883 13.7877 8.81058 15.3839 9.87552 17.2135C10.9405 19.0431 14.3883 13.7877 14.3883 13.7877Z" fill="#9FAEFF"/>
<path d="M14.4954 13.7803C14.4954 13.7803 18.4949 18.4978 19.3527 16.5311C20.2105 14.5643 14.4954 13.7803 14.4954 13.7803Z" fill="#9FAEFF"/>
<path d="M14.4359 13.6778C14.4359 13.6778 16.0141 7.36306 14.095 7.50227C12.1759 7.64148 14.4359 13.6778 14.4359 13.6778Z" fill="#9FAEFF"/>
<path d="M14.4441 13.8222C14.4441 13.8222 12.8659 20.1369 14.785 19.9977C16.7041 19.8585 14.4441 13.8222 14.4441 13.8222Z" fill="#9FAEFF"/>
<path d="M14.4919 13.7092C14.4919 13.7092 20.0687 12.113 19.0047 10.2833C17.9406 8.45371 14.4919 13.7092 14.4919 13.7092Z" fill="#9FAEFF"/>
<path d="M14.3846 13.7176C14.3846 13.7176 10.3851 9.00012 9.52731 10.9669C8.66949 12.9336 14.3846 13.7176 14.3846 13.7176Z" fill="#9FAEFF"/>
<path d="M16.2878 13.537C16.2099 13.5661 16.1259 13.5652 16.0485 13.5343C15.9712 13.5035 15.9048 13.4444 15.8596 13.3662L15.2585 13.5904C15.2696 13.6542 15.2751 13.7192 15.275 13.7842C15.2752 14.0427 15.1869 14.291 15.0289 14.4757L15.4141 15.0823C15.4859 15.0634 15.561 15.0691 15.6299 15.0987C15.6989 15.1284 15.7588 15.1806 15.802 15.2489C15.8604 15.3411 15.8845 15.456 15.8691 15.5685C15.8536 15.6811 15.7999 15.782 15.7196 15.8492C15.639 15.916 15.5386 15.9435 15.4403 15.9256C15.3421 15.9077 15.254 15.846 15.1954 15.7539C15.1479 15.6802 15.1222 15.591 15.1222 15.4993C15.1222 15.4077 15.1479 15.3184 15.1954 15.2447L14.8212 14.6549C14.6958 14.7346 14.5549 14.7771 14.4114 14.7785C14.2665 14.7787 14.1239 14.7369 13.9969 14.657L13.6228 15.2468C13.6703 15.3205 13.696 15.4098 13.696 15.5014C13.696 15.5931 13.6703 15.6823 13.6228 15.756C13.5642 15.8481 13.4761 15.9098 13.3778 15.9277C13.2796 15.9455 13.1792 15.9181 13.0985 15.8513C13.0587 15.8181 13.025 15.7762 12.9993 15.7281C12.9736 15.6799 12.9564 15.6265 12.9487 15.5707C12.9411 15.515 12.9431 15.458 12.9547 15.4032C12.9663 15.3483 12.9872 15.2966 13.0162 15.251C13.0594 15.1827 13.1193 15.1304 13.1882 15.1008C13.2572 15.0712 13.3323 15.0655 13.4041 15.0844L13.7883 14.4778C13.6306 14.293 13.5426 14.0447 13.5432 13.7863C13.5431 13.7213 13.5486 13.6563 13.5596 13.5925L12.9586 13.3683C12.9132 13.4464 12.8469 13.5053 12.7696 13.5361C12.6923 13.567 12.6083 13.568 12.5304 13.5391C12.4835 13.5218 12.44 13.4942 12.4025 13.4576C12.3649 13.4211 12.334 13.3765 12.3116 13.3262C12.2891 13.276 12.2756 13.2212 12.2717 13.1649C12.2678 13.1087 12.2736 13.0521 12.2889 12.9985C12.304 12.9447 12.3283 12.8949 12.3603 12.8519C12.3922 12.8089 12.4313 12.7735 12.4753 12.7478C12.5192 12.7221 12.5671 12.7066 12.6163 12.7021C12.6655 12.6977 12.7149 12.7044 12.7619 12.7219C12.83 12.7472 12.8904 12.7945 12.9359 12.858C12.9813 12.9215 13.0098 12.9986 13.018 13.0802L13.6475 13.3138C13.7114 13.1792 13.8018 13.0634 13.9115 12.9756C14.0212 12.8878 14.1473 12.8303 14.2796 12.8078V12.0671C14.2076 12.037 14.1453 11.9823 14.1012 11.9103C14.0572 11.8383 14.0336 11.7526 14.0335 11.6648C14.0334 11.6083 14.043 11.5524 14.0618 11.5002C14.0807 11.448 14.1083 11.4006 14.1431 11.3607C14.178 11.3208 14.2194 11.2891 14.2649 11.2676C14.3105 11.2461 14.3593 11.2351 14.4086 11.2352C14.5081 11.2352 14.6035 11.2805 14.6739 11.361C14.7442 11.4416 14.7837 11.5508 14.7837 11.6648C14.7837 11.7526 14.76 11.8383 14.716 11.9103C14.672 11.9823 14.6097 12.037 14.5376 12.0671V12.8078C14.67 12.8303 14.796 12.8878 14.9057 12.9756C15.0154 13.0634 15.1058 13.1792 15.1698 13.3138L15.7983 13.0802C15.807 12.9986 15.8357 12.9216 15.8813 12.8581C15.9268 12.7947 15.9872 12.7474 16.0554 12.7219C16.1023 12.7044 16.1517 12.6977 16.2008 12.7022C16.2499 12.7067 16.2977 12.7222 16.3416 12.7479C16.3855 12.7736 16.4245 12.8089 16.4564 12.8519C16.4883 12.8949 16.5124 12.9447 16.5275 12.9985C16.5575 13.1063 16.5492 13.2233 16.5043 13.3242C16.4594 13.425 16.3816 13.5015 16.2878 13.537Z" fill="#657ED7"/>
<path d="M15.9903 12.4211C15.9371 12.4925 15.865 12.5419 15.785 12.5617C15.7049 12.5816 15.6214 12.5709 15.5472 12.5312L15.1365 13.0814C15.1751 13.1293 15.2093 13.1814 15.2389 13.237C15.3569 13.4574 15.3946 13.722 15.344 13.9739L15.949 14.2614C16.0016 14.2023 16.0683 14.1624 16.1406 14.1464C16.213 14.1305 16.2878 14.1393 16.3559 14.1718C16.4477 14.2156 16.5206 14.2992 16.5587 14.4045C16.5968 14.5097 16.597 14.6278 16.5591 14.7332C16.5208 14.8383 16.4476 14.9217 16.3556 14.9651C16.2637 15.0086 16.1604 15.0085 16.0685 14.9649C15.9943 14.9304 15.9318 14.8696 15.89 14.7914C15.8483 14.7132 15.8295 14.6218 15.8365 14.5305L15.2485 14.2508C15.1778 14.3937 15.0769 14.5142 14.9551 14.601C14.8316 14.6877 14.6909 14.7372 14.5462 14.7449L14.4957 15.4716C14.5698 15.5061 14.6324 15.5669 14.6741 15.6451C14.7159 15.7232 14.7347 15.8147 14.7277 15.906C14.7197 16.0195 14.6727 16.1248 14.597 16.1987C14.5213 16.2727 14.4231 16.3092 14.3239 16.3004C14.2748 16.2959 14.2269 16.2803 14.183 16.2546C14.1392 16.2288 14.1002 16.1934 14.0682 16.1505C14.0363 16.1075 14.0121 16.0577 13.997 16.004C13.9819 15.9503 13.9761 15.8937 13.9801 15.8374C13.9859 15.7533 14.0131 15.673 14.0585 15.6065C14.1038 15.54 14.1653 15.4903 14.2352 15.4636L14.2866 14.7166C14.0678 14.6531 13.8796 14.4939 13.7623 14.2731C13.7326 14.2176 13.7077 14.1589 13.6881 14.0979L13.0731 14.2656C13.07 14.3593 13.0402 14.4492 12.9883 14.5217C12.9364 14.5942 12.8652 14.6452 12.7856 14.667C12.7377 14.6803 12.688 14.6827 12.6394 14.6739C12.5907 14.6652 12.544 14.6456 12.502 14.6161C12.4599 14.5867 12.4234 14.548 12.3944 14.5023C12.3655 14.4567 12.3447 14.4049 12.3332 14.35C12.3217 14.2951 12.3197 14.2381 12.3274 14.1823C12.335 14.1265 12.3523 14.073 12.378 14.0249C12.4038 13.9767 12.4377 13.9348 12.4776 13.9017C12.5175 13.8685 12.5628 13.8447 12.6107 13.8316C12.6805 13.8125 12.7535 13.8167 12.8212 13.8438C12.8889 13.8709 12.9484 13.9196 12.9926 13.9843L13.636 13.8077C13.6293 13.6546 13.6536 13.5018 13.7072 13.3614C13.7608 13.221 13.8421 13.0967 13.9448 12.9984L13.6073 12.3664C13.5321 12.3838 13.454 12.3743 13.3837 12.3392C13.3133 12.3041 13.2541 12.2451 13.214 12.1702C13.1882 12.1221 13.1709 12.0686 13.1632 12.0129C13.1555 11.9571 13.1574 11.9002 13.169 11.8453C13.1805 11.7905 13.2014 11.7387 13.2305 11.6932C13.2595 11.6476 13.2962 11.609 13.3383 11.5797C13.4232 11.5203 13.5252 11.5019 13.6219 11.5286C13.7186 11.5553 13.8021 11.6249 13.854 11.7221C13.894 11.7971 13.9129 11.8844 13.9082 11.9721C13.9034 12.0598 13.8752 12.1436 13.8274 12.2123L14.1649 12.8443C14.2881 12.7845 14.4218 12.7582 14.5554 12.7676C14.689 12.777 14.8189 12.8218 14.9348 12.8985L15.3646 12.3237C15.3348 12.249 15.3242 12.1661 15.3342 12.0848C15.3441 12.0034 15.3741 11.927 15.4206 11.8645C15.4527 11.8216 15.4918 11.7864 15.5357 11.7609C15.5796 11.7354 15.6275 11.72 15.6767 11.7158C15.7258 11.7115 15.7752 11.7184 15.822 11.736C15.8688 11.7537 15.9121 11.7817 15.9494 11.8185C16.0242 11.8926 16.0704 11.9974 16.0781 12.1102C16.0857 12.2231 16.0542 12.3348 15.9903 12.4211Z" fill="#657ED7"/>
</svg>
